<mxfile host="Electron" modified="2024-02-11T15:51:47.234Z" agent="Mozilla/5.0 (Windows NT 10.0; Win64; x64) AppleWebKit/537.36 (KHTML, like Gecko) draw.io/23.0.2 Chrome/120.0.6099.109 Electron/28.1.0 Safari/537.36" etag="U0g_h41CpgQPUzlY2k-B" version="23.0.2" type="device">
  <diagram id="C5RBs43oDa-KdzZeNtuy" name="Page-1">
    <mxGraphModel dx="1025" dy="782" grid="1" gridSize="10" guides="1" tooltips="1" connect="1" arrows="1" fold="1" page="1" pageScale="1" pageWidth="827" pageHeight="1169" math="0" shadow="0">
      <root>
        <mxCell id="WIyWlLk6GJQsqaUBKTNV-0" />
        <mxCell id="WIyWlLk6GJQsqaUBKTNV-1" parent="WIyWlLk6GJQsqaUBKTNV-0" />
        <mxCell id="3SKBa4MP1zG08F8zCb2D-30" value="" style="group" vertex="1" connectable="0" parent="WIyWlLk6GJQsqaUBKTNV-1">
          <mxGeometry x="40" y="40" width="730" height="1080" as="geometry" />
        </mxCell>
        <mxCell id="WIyWlLk6GJQsqaUBKTNV-2" value="" style="rounded=0;html=1;jettySize=auto;orthogonalLoop=1;fontSize=11;endArrow=block;endFill=0;endSize=8;strokeWidth=1;shadow=0;labelBackgroundColor=none;edgeStyle=orthogonalEdgeStyle;entryX=0.5;entryY=0;entryDx=0;entryDy=0;" parent="3SKBa4MP1zG08F8zCb2D-30" target="FiZKXfrmjTzjne6S1mKz-3" edge="1">
          <mxGeometry relative="1" as="geometry">
            <mxPoint x="81.11111111111103" y="65.85365853658537" as="sourcePoint" />
            <mxPoint x="81.11111111111119" y="131.70731707317074" as="targetPoint" />
          </mxGeometry>
        </mxCell>
        <mxCell id="Hyi2GzqdrZCViDuYcZH3-0" value="how many time calculate?" style="rounded=1;whiteSpace=wrap;html=1;" parent="3SKBa4MP1zG08F8zCb2D-30" vertex="1">
          <mxGeometry width="162.22222222222223" height="79.02439024390245" as="geometry" />
        </mxCell>
        <mxCell id="FiZKXfrmjTzjne6S1mKz-3" value="ptr=0&lt;br&gt;prime[ptr++]=2" style="rounded=0;whiteSpace=wrap;html=1;align=center;" parent="3SKBa4MP1zG08F8zCb2D-30" vertex="1">
          <mxGeometry y="118.53658536585367" width="148.70370370370372" height="39.51219512195122" as="geometry" />
        </mxCell>
        <mxCell id="3SKBa4MP1zG08F8zCb2D-3" value="ptr=1&lt;br&gt;prime[ptr++]=3" style="rounded=0;whiteSpace=wrap;html=1;align=center;" vertex="1" parent="3SKBa4MP1zG08F8zCb2D-30">
          <mxGeometry x="202.77777777777777" y="118.53658536585367" width="148.70370370370372" height="39.51219512195122" as="geometry" />
        </mxCell>
        <mxCell id="3SKBa4MP1zG08F8zCb2D-2" value="" style="edgeStyle=orthogonalEdgeStyle;rounded=0;orthogonalLoop=1;jettySize=auto;html=1;exitX=1;exitY=0.5;exitDx=0;exitDy=0;entryX=0;entryY=0.5;entryDx=0;entryDy=0;" edge="1" parent="3SKBa4MP1zG08F8zCb2D-30" source="FiZKXfrmjTzjne6S1mKz-3" target="3SKBa4MP1zG08F8zCb2D-3">
          <mxGeometry relative="1" as="geometry">
            <mxPoint x="202.77777777777777" y="138.29268292682926" as="targetPoint" />
          </mxGeometry>
        </mxCell>
        <mxCell id="3SKBa4MP1zG08F8zCb2D-13" value="" style="edgeStyle=orthogonalEdgeStyle;rounded=0;orthogonalLoop=1;jettySize=auto;html=1;" edge="1" parent="3SKBa4MP1zG08F8zCb2D-30" source="Hyi2GzqdrZCViDuYcZH3-1">
          <mxGeometry relative="1" as="geometry">
            <mxPoint x="273.0740740740741" y="289.75609756097566" as="targetPoint" />
          </mxGeometry>
        </mxCell>
        <mxCell id="Hyi2GzqdrZCViDuYcZH3-1" value="n=5 to 1000 ; n+=2" style="shape=trapezoid;perimeter=trapezoidPerimeter;whiteSpace=wrap;html=1;fixedSize=1;container=0;movable=1;resizable=1;rotatable=1;deletable=1;editable=1;locked=0;connectable=1;" parent="3SKBa4MP1zG08F8zCb2D-30" vertex="1">
          <mxGeometry x="189.25925925925915" y="197.5609756097561" width="168.4137037037037" height="66.8809756097561" as="geometry" />
        </mxCell>
        <mxCell id="Hyi2GzqdrZCViDuYcZH3-33" value="" style="endArrow=classic;html=1;rounded=0;entryX=0.938;entryY=0.601;entryDx=0;entryDy=0;entryPerimeter=0;exitX=0.5;exitY=0;exitDx=0;exitDy=0;movable=1;resizable=1;rotatable=1;deletable=1;editable=1;locked=0;connectable=1;" parent="3SKBa4MP1zG08F8zCb2D-30" source="Hyi2GzqdrZCViDuYcZH3-20" target="Hyi2GzqdrZCViDuYcZH3-1" edge="1">
          <mxGeometry width="50" height="50" relative="1" as="geometry">
            <mxPoint x="313.8784620213434" y="718.7906250000001" as="sourcePoint" />
            <mxPoint x="394.71462021343376" y="304.5731707317073" as="targetPoint" />
            <Array as="points">
              <mxPoint x="446.1111111111111" y="421.4634146341463" />
              <mxPoint x="446.1111111111111" y="237.07317073170734" />
            </Array>
          </mxGeometry>
        </mxCell>
        <mxCell id="Hyi2GzqdrZCViDuYcZH3-20" value="flag 0 or 1?" style="rhombus;whiteSpace=wrap;html=1;container=0;movable=1;resizable=1;rotatable=1;deletable=1;editable=1;locked=0;connectable=1;" parent="3SKBa4MP1zG08F8zCb2D-30" vertex="1">
          <mxGeometry x="395.2615473948525" y="612.1212804878049" width="107.78154425612055" height="80.25914634146342" as="geometry" />
        </mxCell>
        <mxCell id="Hyi2GzqdrZCViDuYcZH3-28" value="" style="shape=trapezoid;perimeter=trapezoidPerimeter;whiteSpace=wrap;html=1;fixedSize=1;rotation=-180;container=0;movable=1;resizable=1;rotatable=1;deletable=1;editable=1;locked=0;connectable=1;" parent="3SKBa4MP1zG08F8zCb2D-30" vertex="1">
          <mxGeometry x="175.98407407407404" y="797.8598780487805" width="168.40866290018832" height="66.88262195121952" as="geometry" />
        </mxCell>
        <mxCell id="Hyi2GzqdrZCViDuYcZH3-37" value="flag = 1" style="text;html=1;strokeColor=none;fillColor=none;align=center;verticalAlign=middle;whiteSpace=wrap;rounded=0;container=0;movable=1;resizable=1;rotatable=1;deletable=1;editable=1;locked=0;connectable=1;" parent="3SKBa4MP1zG08F8zCb2D-30" vertex="1">
          <mxGeometry x="445.5641839296925" y="568.797804878049" width="67.36346516007532" height="26.753048780487806" as="geometry" />
        </mxCell>
        <mxCell id="FiZKXfrmjTzjne6S1mKz-31" value="" style="endArrow=classic;html=1;rounded=0;exitX=0;exitY=0.5;exitDx=0;exitDy=0;entryX=0;entryY=0.5;entryDx=0;entryDy=0;" parent="3SKBa4MP1zG08F8zCb2D-30" source="Hyi2GzqdrZCViDuYcZH3-27" target="Hyi2GzqdrZCViDuYcZH3-20" edge="1">
          <mxGeometry width="50" height="50" relative="1" as="geometry">
            <mxPoint x="334.63740740740735" y="620.3414634146342" as="sourcePoint" />
            <mxPoint x="361.67444444444436" y="619.0243902439024" as="targetPoint" />
          </mxGeometry>
        </mxCell>
        <mxCell id="FiZKXfrmjTzjne6S1mKz-7" value="" style="endArrow=classic;html=1;rounded=0;" parent="3SKBa4MP1zG08F8zCb2D-30" edge="1">
          <mxGeometry width="50" height="50" relative="1" as="geometry">
            <mxPoint x="280.17129629629625" y="158.0487804878049" as="sourcePoint" />
            <mxPoint x="280.17129629629625" y="197.5609756097561" as="targetPoint" />
          </mxGeometry>
        </mxCell>
        <mxCell id="3SKBa4MP1zG08F8zCb2D-15" value="int flag = 0" style="rounded=0;whiteSpace=wrap;html=1;" vertex="1" parent="3SKBa4MP1zG08F8zCb2D-30">
          <mxGeometry x="212.63277777777776" y="289.75609756097566" width="121.66666666666667" height="26.341463414634145" as="geometry" />
        </mxCell>
        <mxCell id="Hyi2GzqdrZCViDuYcZH3-5" value="i=1;counter++,&lt;br&gt;prime[i]*prime[i]&amp;lt;=n;i++" style="shape=trapezoid;perimeter=trapezoidPerimeter;whiteSpace=wrap;html=1;fixedSize=1;container=0;movable=1;resizable=1;rotatable=1;deletable=1;editable=1;locked=0;connectable=1;" parent="3SKBa4MP1zG08F8zCb2D-30" vertex="1">
          <mxGeometry x="64.42925925925925" y="342.4390243902439" width="192.4225925925926" height="40.13121951219512" as="geometry" />
        </mxCell>
        <mxCell id="3SKBa4MP1zG08F8zCb2D-17" value="" style="edgeStyle=orthogonalEdgeStyle;rounded=0;orthogonalLoop=1;jettySize=auto;html=1;exitX=0;exitY=0.5;exitDx=0;exitDy=0;" edge="1" parent="3SKBa4MP1zG08F8zCb2D-30" source="3SKBa4MP1zG08F8zCb2D-15" target="Hyi2GzqdrZCViDuYcZH3-5">
          <mxGeometry relative="1" as="geometry">
            <mxPoint x="202.77777777777774" y="302.9268292682926" as="sourcePoint" />
            <mxPoint x="138.8487037037037" y="342.4390243902439" as="targetPoint" />
          </mxGeometry>
        </mxCell>
        <mxCell id="Hyi2GzqdrZCViDuYcZH3-17" value="" style="endArrow=classic;html=1;rounded=0;movable=1;resizable=1;rotatable=1;deletable=1;editable=1;locked=0;connectable=1;exitX=0.941;exitY=0.468;exitDx=0;exitDy=0;exitPerimeter=0;entryX=0.944;entryY=0.636;entryDx=0;entryDy=0;entryPerimeter=0;" parent="3SKBa4MP1zG08F8zCb2D-30" target="Hyi2GzqdrZCViDuYcZH3-5" edge="1" source="Hyi2GzqdrZCViDuYcZH3-15">
          <mxGeometry width="50" height="50" relative="1" as="geometry">
            <mxPoint x="148.29012868800996" y="541.912637195122" as="sourcePoint" />
            <mxPoint x="175.23551475204016" y="408.7092073170731" as="targetPoint" />
            <Array as="points">
              <mxPoint x="351.48148148148147" y="500.48780487804885" />
              <mxPoint x="351.48148148148147" y="367.4634146341463" />
            </Array>
          </mxGeometry>
        </mxCell>
        <mxCell id="Hyi2GzqdrZCViDuYcZH3-27" value="" style="shape=trapezoid;perimeter=trapezoidPerimeter;whiteSpace=wrap;html=1;fixedSize=1;rotation=-180;container=0;movable=1;resizable=1;rotatable=1;deletable=1;editable=1;locked=0;connectable=1;" parent="3SKBa4MP1zG08F8zCb2D-30" vertex="1">
          <mxGeometry x="220.13440991839295" y="632.1918292682926" width="148.19962335216573" height="40.12957317073171" as="geometry" />
        </mxCell>
        <mxCell id="Hyi2GzqdrZCViDuYcZH3-8" value="" style="endArrow=classic;html=1;rounded=0;movable=1;resizable=1;rotatable=1;deletable=1;editable=1;locked=0;connectable=1;" parent="3SKBa4MP1zG08F8zCb2D-30" edge="1">
          <mxGeometry width="50" height="50" relative="1" as="geometry">
            <mxPoint x="172.62048336472066" y="384.2083536585365" as="sourcePoint" />
            <mxPoint x="226.5112554927809" y="437.71445121951217" as="targetPoint" />
            <Array as="points">
              <mxPoint x="172.62048336472066" y="437.71445121951217" />
              <mxPoint x="199.56586942875072" y="437.71445121951217" />
            </Array>
          </mxGeometry>
        </mxCell>
        <mxCell id="Hyi2GzqdrZCViDuYcZH3-13" value="" style="endArrow=none;html=1;rounded=0;movable=1;resizable=1;rotatable=1;deletable=1;editable=1;locked=0;connectable=1;" parent="3SKBa4MP1zG08F8zCb2D-30" edge="1">
          <mxGeometry width="50" height="50" relative="1" as="geometry">
            <mxPoint x="145.67509730069045" y="461.7921951219512" as="sourcePoint" />
            <mxPoint x="145.67509730069045" y="381.5330487804877" as="targetPoint" />
            <Array as="points">
              <mxPoint x="145.67509730069045" y="408.2860975609756" />
            </Array>
          </mxGeometry>
        </mxCell>
        <mxCell id="Hyi2GzqdrZCViDuYcZH3-14" value="increase&lt;br&gt;counter +1" style="rounded=0;whiteSpace=wrap;html=1;container=0;movable=1;resizable=1;rotatable=1;deletable=1;editable=1;locked=0;connectable=1;" parent="3SKBa4MP1zG08F8zCb2D-30" vertex="1">
          <mxGeometry x="226.5112554927809" y="408.2860975609756" width="107.78154425612055" height="53.50609756097561" as="geometry" />
        </mxCell>
        <mxCell id="Hyi2GzqdrZCViDuYcZH3-15" value="&lt;font style=&quot;font-size: 8px;&quot;&gt;n % prime[i] == 0&lt;/font&gt;" style="rhombus;whiteSpace=wrap;html=1;container=0;movable=1;resizable=1;rotatable=1;deletable=1;editable=1;locked=0;connectable=1;" parent="3SKBa4MP1zG08F8zCb2D-30" vertex="1">
          <mxGeometry x="88.46518518518504" y="461.7921951219512" width="114.42074074074074" height="83.55512195121952" as="geometry" />
        </mxCell>
        <mxCell id="Hyi2GzqdrZCViDuYcZH3-19" value="No" style="text;html=1;strokeColor=none;fillColor=none;align=center;verticalAlign=middle;whiteSpace=wrap;rounded=0;container=0;movable=1;resizable=1;rotatable=1;deletable=1;editable=1;locked=0;connectable=1;" parent="3SKBa4MP1zG08F8zCb2D-30" vertex="1">
          <mxGeometry x="226.5112554927809" y="475.168719512195" width="67.36346516007532" height="26.753048780487806" as="geometry" />
        </mxCell>
        <mxCell id="Hyi2GzqdrZCViDuYcZH3-22" value="" style="endArrow=classic;html=1;rounded=0;movable=1;resizable=1;rotatable=1;deletable=1;editable=1;locked=0;connectable=1;" parent="3SKBa4MP1zG08F8zCb2D-30" edge="1">
          <mxGeometry width="50" height="50" relative="1" as="geometry">
            <mxPoint x="145.1092441933458" y="543.388993902439" as="sourcePoint" />
            <mxPoint x="145.1092441933458" y="596.8950914634146" as="targetPoint" />
            <Array as="points">
              <mxPoint x="145.1092441933458" y="543.388993902439" />
            </Array>
          </mxGeometry>
        </mxCell>
        <mxCell id="Hyi2GzqdrZCViDuYcZH3-25" value="flag = 1" style="rounded=0;whiteSpace=wrap;html=1;container=0;movable=1;resizable=1;rotatable=1;deletable=1;editable=1;locked=0;connectable=1;" parent="3SKBa4MP1zG08F8zCb2D-30" vertex="1">
          <mxGeometry x="85.0479786566227" y="595.5574390243902" width="114.51789077212806" height="26.753048780487806" as="geometry" />
        </mxCell>
        <mxCell id="Hyi2GzqdrZCViDuYcZH3-26" value="Yes" style="text;html=1;strokeColor=none;fillColor=none;align=center;verticalAlign=middle;whiteSpace=wrap;rounded=0;container=0;movable=1;resizable=1;rotatable=1;deletable=1;editable=1;locked=0;connectable=1;" parent="3SKBa4MP1zG08F8zCb2D-30" vertex="1">
          <mxGeometry x="142.3069240426867" y="555.4278658536585" width="67.36346516007532" height="26.753048780487806" as="geometry" />
        </mxCell>
        <mxCell id="3SKBa4MP1zG08F8zCb2D-20" value="break" style="rounded=0;whiteSpace=wrap;html=1;container=0;movable=1;resizable=1;rotatable=1;deletable=1;editable=1;locked=0;connectable=1;" vertex="1" parent="3SKBa4MP1zG08F8zCb2D-30">
          <mxGeometry x="236.9690897677338" y="595.5574390243902" width="114.51789077212806" height="26.753048780487806" as="geometry" />
        </mxCell>
        <mxCell id="Hyi2GzqdrZCViDuYcZH3-29" value="" style="endArrow=none;html=1;rounded=0;movable=1;resizable=1;rotatable=1;deletable=1;editable=1;locked=0;connectable=1;exitX=0.5;exitY=1;exitDx=0;exitDy=0;entryX=0.5;entryY=1;entryDx=0;entryDy=0;" parent="3SKBa4MP1zG08F8zCb2D-30" edge="1" target="3SKBa4MP1zG08F8zCb2D-20" source="Hyi2GzqdrZCViDuYcZH3-27">
          <mxGeometry width="50" height="50" relative="1" as="geometry">
            <mxPoint x="294.4193565599498" y="649.0635365853659" as="sourcePoint" />
            <mxPoint x="293.96128499686125" y="622.310487804878" as="targetPoint" />
          </mxGeometry>
        </mxCell>
        <mxCell id="3SKBa4MP1zG08F8zCb2D-21" value="" style="edgeStyle=orthogonalEdgeStyle;rounded=0;orthogonalLoop=1;jettySize=auto;html=1;" edge="1" parent="3SKBa4MP1zG08F8zCb2D-30" source="Hyi2GzqdrZCViDuYcZH3-25" target="3SKBa4MP1zG08F8zCb2D-20">
          <mxGeometry relative="1" as="geometry" />
        </mxCell>
        <mxCell id="FiZKXfrmjTzjne6S1mKz-11" value="" style="endArrow=classic;html=1;rounded=0;movable=1;resizable=1;rotatable=1;deletable=1;editable=1;locked=0;connectable=1;entryX=0.5;entryY=0;entryDx=0;entryDy=0;" parent="3SKBa4MP1zG08F8zCb2D-30" edge="1">
          <mxGeometry width="50" height="50" relative="1" as="geometry">
            <mxPoint x="266.40944444444443" y="774.7024390243903" as="sourcePoint" />
            <mxPoint x="266.40944444444443" y="799.7268292682928" as="targetPoint" />
            <Array as="points">
              <mxPoint x="265.6535072190834" y="792.7710365853659" />
            </Array>
          </mxGeometry>
        </mxCell>
        <mxCell id="Hyi2GzqdrZCViDuYcZH3-34" value="" style="endArrow=classic;html=1;rounded=0;movable=1;resizable=1;rotatable=1;deletable=1;editable=1;locked=0;connectable=1;exitX=0.5;exitY=1;exitDx=0;exitDy=0;entryX=1.016;entryY=0.388;entryDx=0;entryDy=0;entryPerimeter=0;" parent="3SKBa4MP1zG08F8zCb2D-30" target="FiZKXfrmjTzjne6S1mKz-8" edge="1" source="Hyi2GzqdrZCViDuYcZH3-20">
          <mxGeometry width="50" height="50" relative="1" as="geometry">
            <mxPoint x="448.69424795982417" y="683.3321341463416" as="sourcePoint" />
            <mxPoint x="337.962962962963" y="737.5609756097562" as="targetPoint" />
            <Array as="points">
              <mxPoint x="448.8148148148148" y="737.5609756097562" />
            </Array>
          </mxGeometry>
        </mxCell>
        <mxCell id="FiZKXfrmjTzjne6S1mKz-8" value="prime[ptr++] = n" style="rounded=0;whiteSpace=wrap;html=1;" parent="3SKBa4MP1zG08F8zCb2D-30" vertex="1">
          <mxGeometry x="193.11203703703697" y="711.219512195122" width="148.70370370370372" height="65.85365853658537" as="geometry" />
        </mxCell>
        <mxCell id="3SKBa4MP1zG08F8zCb2D-24" value="flag = 0" style="text;html=1;strokeColor=none;fillColor=none;align=center;verticalAlign=middle;whiteSpace=wrap;rounded=0;container=0;movable=1;resizable=1;rotatable=1;deletable=1;editable=1;locked=0;connectable=1;" vertex="1" parent="3SKBa4MP1zG08F8zCb2D-30">
          <mxGeometry x="445.5641839296925" y="692.378780487805" width="67.36346516007532" height="26.753048780487806" as="geometry" />
        </mxCell>
        <mxCell id="3SKBa4MP1zG08F8zCb2D-27" value="" style="endArrow=classic;html=1;rounded=0;entryX=0.102;entryY=0.361;entryDx=0;entryDy=0;exitX=0;exitY=0.5;exitDx=0;exitDy=0;entryPerimeter=0;" edge="1" parent="3SKBa4MP1zG08F8zCb2D-30" source="Hyi2GzqdrZCViDuYcZH3-28" target="FiZKXfrmjTzjne6S1mKz-12">
          <mxGeometry width="50" height="50" relative="1" as="geometry">
            <mxPoint x="337.962962962963" y="829.7560975609757" as="sourcePoint" />
            <mxPoint x="432.5925925925926" y="829.7560975609757" as="targetPoint" />
          </mxGeometry>
        </mxCell>
        <mxCell id="FiZKXfrmjTzjne6S1mKz-27" value="print &quot;counter&quot;" style="shape=parallelogram;perimeter=parallelogramPerimeter;whiteSpace=wrap;html=1;fixedSize=1;" parent="3SKBa4MP1zG08F8zCb2D-30" vertex="1">
          <mxGeometry x="567.7777777777777" y="1000.9756097560977" width="162.22222222222223" height="79.02439024390245" as="geometry" />
        </mxCell>
        <mxCell id="FiZKXfrmjTzjne6S1mKz-12" value="i=0;ii&amp;lt;ptr;i++" style="shape=trapezoid;perimeter=trapezoidPerimeter;whiteSpace=wrap;html=1;fixedSize=1;container=0;" parent="3SKBa4MP1zG08F8zCb2D-30" vertex="1">
          <mxGeometry x="421.0477777777776" y="816.5853658536586" width="135.1851851851852" height="39.51219512195122" as="geometry" />
        </mxCell>
        <mxCell id="FiZKXfrmjTzjne6S1mKz-15" value="" style="endArrow=none;html=1;rounded=0;exitX=0.544;exitY=0.994;exitDx=0;exitDy=0;exitPerimeter=0;entryX=0.55;entryY=-0.012;entryDx=0;entryDy=0;entryPerimeter=0;" parent="3SKBa4MP1zG08F8zCb2D-30" source="FiZKXfrmjTzjne6S1mKz-12" edge="1" target="FiZKXfrmjTzjne6S1mKz-16">
          <mxGeometry width="50" height="50" relative="1" as="geometry">
            <mxPoint x="486.6666666666666" y="869.2682926829268" as="sourcePoint" />
            <mxPoint x="486.6666666666667" y="869.2682926829268" as="targetPoint" />
            <Array as="points" />
          </mxGeometry>
        </mxCell>
        <mxCell id="FiZKXfrmjTzjne6S1mKz-16" value="print[ptr++] = n" style="shape=parallelogram;perimeter=parallelogramPerimeter;whiteSpace=wrap;html=1;fixedSize=1;container=0;" parent="3SKBa4MP1zG08F8zCb2D-30" vertex="1">
          <mxGeometry x="421.04777777777764" y="869.2682926829268" width="133.83333333333334" height="65.85365853658537" as="geometry" />
        </mxCell>
        <mxCell id="FiZKXfrmjTzjne6S1mKz-17" value="" style="endArrow=none;html=1;rounded=0;exitX=0.518;exitY=0.985;exitDx=0;exitDy=0;entryX=0.484;entryY=0.994;entryDx=0;entryDy=0;exitPerimeter=0;entryPerimeter=0;" parent="3SKBa4MP1zG08F8zCb2D-30" edge="1" target="FiZKXfrmjTzjne6S1mKz-19" source="FiZKXfrmjTzjne6S1mKz-16">
          <mxGeometry width="50" height="50" relative="1" as="geometry">
            <mxPoint x="487.1127777777777" y="961.4634146341464" as="sourcePoint" />
            <mxPoint x="479.90740740740745" y="961.4634146341464" as="targetPoint" />
            <Array as="points" />
          </mxGeometry>
        </mxCell>
        <mxCell id="FiZKXfrmjTzjne6S1mKz-19" value="" style="shape=trapezoid;perimeter=trapezoidPerimeter;whiteSpace=wrap;html=1;fixedSize=1;rotation=-180;container=0;" parent="3SKBa4MP1zG08F8zCb2D-30" vertex="1">
          <mxGeometry x="421.04777777777764" y="948.2926829268293" width="135.1851851851852" height="39.51219512195122" as="geometry" />
        </mxCell>
        <mxCell id="FiZKXfrmjTzjne6S1mKz-26" value="" style="endArrow=classic;html=1;rounded=0;exitX=0.515;exitY=0.072;exitDx=0;exitDy=0;exitPerimeter=0;entryX=0;entryY=0.5;entryDx=0;entryDy=0;" parent="3SKBa4MP1zG08F8zCb2D-30" source="FiZKXfrmjTzjne6S1mKz-19" edge="1" target="FiZKXfrmjTzjne6S1mKz-27">
          <mxGeometry width="50" height="50" relative="1" as="geometry">
            <mxPoint x="487.2614814814814" y="1040.4878048780488" as="sourcePoint" />
            <mxPoint x="581.2962962962963" y="1040.4878048780488" as="targetPoint" />
            <Array as="points">
              <mxPoint x="488.01851851851853" y="1040.4878048780488" />
            </Array>
          </mxGeometry>
        </mxCell>
      </root>
    </mxGraphModel>
  </diagram>
</mxfile>
